<?xml version="1.0" encoding="utf-8"?>
<!-- Generator: Adobe Illustrator 24.0.1, SVG Export Plug-In . SVG Version: 6.00 Build 0)  -->
<svg version="1.1" id="Layer_1" xmlns="http://www.w3.org/2000/svg" xmlns:xlink="http://www.w3.org/1999/xlink" x="0px" y="0px"
	 viewBox="0 0 185 186" style="enable-background:new 0 0 185 186;" xml:space="preserve">
<style type="text/css">
	.st0{fill-rule:evenodd;clip-rule:evenodd;}
</style>
<g id="Page-1">
	<g id="_x30_1-home-copy" transform="translate(-1124.000000, -1167.000000)">
		<g id="about" transform="translate(0.000000, 1035.000000)">
			<g id="play" transform="translate(1124.000000, 132.000000)">
				<path id="Fill-93" class="st0" d="M96.9,175.6l0.2,10.3L90,186v-1.1l5.7-0.1l-0.1-3.3l-5.3,0.1v-1.2l5.3-0.1l-0.1-3.6l-5.8,0.1
					v-1.1L96.9,175.6z M81.2,175.1l7.1,0.6l-0.8,10.2l-7.1-0.6l0.1-1.1l5.7,0.5l0.3-3.3l-5.3-0.4l0.1-1.1l5.3,0.4l0.3-3.5l-5.8-0.5
					L81.2,175.1z M106.4,174.5l1.3,10.2l-4.8,0.6c-1.9,0.3-3.2-0.6-3.4-2.3c-0.2-1.2,0.2-2.3,1.4-2.8l0,0c-1.2-0.1-1.6-0.9-1.8-1.9
					c-0.2-1-0.3-2.1-1-2.7l1.5-0.2c0.4,0.4,0.4,1.5,0.7,2.5c0.3,1,0.6,1.8,1.9,1.6l3.3-0.4l-0.6-4.4L106.4,174.5z M73.1,173.7
					l6.7,1.2L78,185l-1.3-0.2l1.6-9l-5.4-1L73.1,173.7z M105.8,180.1l-2.8,0.4c-1.3,0.2-2.3,0.6-2.1,2.1c0.1,1,0.8,1.7,2,1.5
					l3.4-0.4L105.8,180.1z M116.2,172l1.2,4l5.5,4.7l-1.6,0.5l-4.4-3.8l-1.5,5.5l-1.5,0.4l2-6.9l-1.2-4L116.2,172z M134.2,164.1l5,9
					l-1.2,0.7l-4.4-8l-4.8,2.6l-0.3-0.5l0.3,10.5l-1.4,0.6l-7.7-7.9l1.4-0.6l2.2,2.4l4-1.7l-0.1-3.3l1.1-0.5l0,0L134.2,164.1z
					 M127.3,172.4l-3.2,1.4l3.4,3.7l0,0L127.3,172.4z M52.9,170l9.8,4.2l-0.5,1.1l-9.8-4.2L52.9,170z M141.7,159.1l5.8,8.5l-3.7,2.6
					c-1.7,1.2-3.2,0.9-4.3-0.7c-1.1-1.6-0.8-3.1,0.9-4.3l2.6-1.8l-2.4-3.5L141.7,159.1z M44.2,160.7l1.1,0.8l-6.1,8.2l-3.6-2.7
					c-1.7-1.2-1.9-2.8-0.7-4.3c1.1-1.5,2.7-1.8,4.3-0.6l2.5,1.9L44.2,160.7z M143.6,164.3l-2.2,1.5c-1.3,0.9-1.5,1.8-0.8,2.8
					s1.6,1.2,2.9,0.3l2.2-1.5L143.6,164.3z M35.9,163.5c-0.7,1-0.6,1.9,0.7,2.9l2.2,1.6l2.3-3l-2.2-1.6
					C37.6,162.4,36.7,162.6,35.9,163.5z M26.9,144.5l1,1.1l-1.6,2.9l2.9,3.2l3.1-1.2l0.8,0.8l0,0l5,4.6l-6.9,7.6l-1-0.9l6.2-6.7
					l-4-3.7l0.4-0.4l-9.8,3.6l-1-1.1L26.9,144.5z M159.4,146.7l0.9,0.8l-7.1,7.9l-0.9-0.8L159.4,146.7z M25.8,149.6l-2.4,4.5l0,0
					l4.7-1.9L25.8,149.6z M24,140.4l0.8,1.1l-3.4,2.4l-2.6,6.8l-0.9-1.3l2.2-5.3l-5.7,0.4l-0.9-1.3l7.2-0.3L24,140.4z M15.6,125.6
					l0.7,1.4c-0.2,0.5-1.3,0.8-2.1,1.5c-0.8,0.6-1.5,1.2-0.9,2.4l1.5,3l3.9-2l0.6,1.2l-9.2,4.6L8,133.3c-0.9-1.7-0.5-3.3,1-4
					c1.1-0.6,2.3-0.5,3.1,0.4l0,0c-0.3-1.2,0.4-1.8,1.2-2.3C14.2,126.9,15.3,126.5,15.6,125.6z M165.5,130.8l9,5l-0.7,1.2l-8-4.5
					l-2.7,4.7l-1-0.6L165.5,130.8z M9.8,130.5c-0.9,0.5-1.3,1.3-0.8,2.4l1.5,3l3.2-1.6l-1.3-2.6C11.9,130.6,11.1,129.8,9.8,130.5z
					 M169.1,123l9.4,4.1l-2.8,6.5l-1.1-0.5l2.3-5.2l-3-1.3l-2.1,4.9l-1.1-0.5l2.1-4.9l-3.3-1.4l-2.3,5.3l-1.1-0.5L169.1,123z
					 M12.7,117.8l2.5,6.7L5.5,128l-2.4-6.7l1.1-0.4l2,5.4l3.1-1.1l-1.8-5l1.1-0.4l1.8,5l3.3-1.2l-2-5.4L12.7,117.8z M171.7,114.9
					l9.8,3.1l-2.1,6.8l-1.1-0.3l1.7-5.5l-3.1-1l-1.6,5.1l-1.1-0.3l1.6-5.1l-3.4-1.1l-1.7,5.5l-1.1-0.3L171.7,114.9z M10.6,109.5
					l1.7,6.9l-10,2.5L0.6,112l1.1-0.3l1.4,5.6l3.2-0.8L5,111.3l1.1-0.3l1.3,5.2l3.5-0.9l-1.4-5.6L10.6,109.5z M173.7,105.6l10.1,2
					l-1,4.7c-0.4,1.9-1.6,2.9-3.3,2.5c-1.2-0.2-2.1-1-2.2-2.3l0,0c-0.5,1.1-1.4,1.2-2.4,1.1s-2.1-0.4-2.9,0l0.3-1.5
					c0.5-0.3,1.5,0.1,2.6,0.1c1,0,1.9,0,2.2-1.3l0.7-3.3l-4.3-0.9L173.7,105.6z M178.9,108l-0.6,2.8c-0.2,1.2-0.1,2.4,1.3,2.7
					c1,0.2,1.8-0.2,2.1-1.4l0.7-3.3L178.9,108z M9.4,101.3l1,6.7l-10.2,1.5L0,108.2l9-1.3l-0.8-5.4L9.4,101.3z M185,92l-0.1,1.6
					l-5,2.9l4.8,3.2l-0.1,1.6l-5.9-4.2l-4.2-0.2l0.1-1.4l4.2,0.2L185,92z M183,74.2l0.2,1.3l-9,1.6l0.9,5.4l-0.6,0.1l10,3.1l0.1,1.5
					l-10,4.7l-0.1-1.5l3-1.3l-0.3-4.3l-3.2-0.9l-0.1-1.1l0,0l-1.2-6.7L183,74.2z M5.1,81l1.1,0.1L5.5,91.7l-1.1-0.1L5.1,81z
					 M178.5,85.1l0.2,3.5l4.7-2l0,0L178.5,85.1z M180.5,64.4l1.2,4.3c0.6,2-0.2,3.3-2.1,3.9c-1.8,0.5-3.2-0.2-3.8-2.2l-0.9-3
					l-4.1,1.1l-0.4-1.3L180.5,64.4z M179.7,66l-3.6,1l0.7,2.6c0.4,1.5,1.2,2,2.4,1.7s1.6-1.2,1.2-2.7L179.7,66z M7.3,61.7
					c1.8,0.6,2.6,2,1.9,3.9l-1,3l4,1.3l-0.4,1.3L2,68.1l1.4-4.3C4.1,61.8,5.5,61.1,7.3,61.7z M4.4,64.6l-0.8,2.5l3.6,1.1L8,65.7
					c0.5-1.5,0.1-2.3-1.1-2.7C5.7,62.6,4.9,63.1,4.4,64.6z M11.1,46.7L22,48.3l-0.7,1.3L18.1,49L16,52.8l2.1,2.5l-0.5,1l0,0
					l-2.7,6.2l-9.4-4.1L6,57.1l8.4,3.7l2.2-5l0.5,0.2l-6.6-8L11.1,46.7z M165.6,46l5.2,9.3l-1,0.6l-5.2-9.3L165.6,46z M11.8,48
					L11.8,48l3.3,3.9l1.7-3L11.8,48z M18.9,35l2.6,6.7l3.4,2.5l-0.8,1.1l-3.4-2.5l-7.3-0.3l1-1.3l5.8,0.4L18,36.3L18.9,35z
					 M159.1,28.7l0.9,1l-6.8,6.1l3.6,4l-0.9,0.8l-4.6-5.1L159.1,28.7z M30.6,26.5c0.9,0.9,1.2,2,0.6,3.1l0,0c1-0.7,1.8-0.2,2.6,0.4
					s1.5,1.5,2.4,1.6l-1.1,1.1c-0.6,0-1.2-1-2.1-1.5c-0.8-0.6-1.6-1-2.5-0.1l-2.4,2.4l3.1,3.1l-1,1l-7.3-7.2l3.4-3.4
					C27.9,25.4,29.5,25.3,30.6,26.5z M152.1,22.1l5.2,4.8l-0.8,0.8l-4.2-3.9l-2.2,2.4l3.9,3.6l-0.8,0.8l-3.9-3.6l-2.4,2.6l4.3,3.9
					l-0.8,0.9l-5.3-4.8L152.1,22.1z M27.3,27.6L24.9,30l2.5,2.5l2-2c0.9-0.9,1.4-1.9,0.4-3C29.1,26.9,28.2,26.7,27.3,27.6z
					 M36.3,18.3l0.7,0.9l-4.5,3.6l2.1,2.5l4.2-3.4l0.7,0.9l-4.2,3.4l2.2,2.8l4.5-3.6l0.7,0.9l-5.6,4.5l-6.5-8L36.3,18.3z
					 M144.5,16.3l5.7,4.2l-0.7,0.9l-4.6-3.4l-1.9,2.6l4.3,3.2l-0.7,0.9l-4.3-3.2l-2.1,2.9l4.6,3.4l-0.7,0.9l-5.7-4.2L144.5,16.3z
					 M44.3,13l0.6,1l-4.8,3.1l1.8,2.7l4.5-2.9l0.6,1l-4.5,2.9l1.9,3l4.8-3.1l0.6,1l-6,3.9L38.2,17L44.3,13z M135.4,10.7l4.2,2.4
					c1.7,1,2.2,2.5,1.3,3.9c-0.6,1.1-1.6,1.7-2.9,1.3l0,0c0.9,0.8,0.7,1.7,0.3,2.6s-1.1,1.9-0.9,2.8l-1.3-0.8
					c-0.1-0.6,0.6-1.4,1-2.4c0.4-0.9,0.6-1.8-0.5-2.5l-2.9-1.7l-2.2,3.8l-1.2-0.7L135.4,10.7z M47.7,11.1l4.2,8.1l4.8-2.5l0.5,1
					l-6,3.1l-4.7-9.1L47.7,11.1z M136,12.4l-1.8,3.1l2.5,1.4c1.1,0.6,2.2,0.9,3-0.4c0.5-0.9,0.4-1.8-0.7-2.4L136,12.4z M120.9,4.6
					l1.5,0.6l1.1,5.7l4.6-3.5l1.5,0.6l-5.9,4.3l-1.5,3.9l-1.3-0.5l1.5-3.9L120.9,4.6z M103.4,0.7l1.4,0.2l-1.4,9l5.4,0.8l-0.1,0.6
					l6.2-8.5l1.5,0.4l1.3,11l-1.5-0.4l-0.3-3.3l-4.2-1.1l-1.9,2.7l-1.1-0.3l0,0l-6.7-1L103.4,0.7z M75.2,7.2l0.3,1.1L65.2,11
					l-0.3-1.1L75.2,7.2z M93.4,0l4.5,0.2c2.1,0.1,3.1,1.3,3,3.2s-1.3,3-3.3,2.9l-3.1-0.2l-0.2,4.2l-1.4-0.1L93.4,0z M115.2,4.3
					l-2.9,4.2l3.4,0.9L115.2,4.3L115.2,4.3z M94.7,1.2L94.5,5l2.7,0.1c1.6,0.1,2.3-0.5,2.3-1.8s-0.6-1.9-2.1-2L94.7,1.2z"/>
			</g>
		</g>
	</g>
</g>
</svg>
